<svg width="24" height="24" viewBox="0 0 24 24" fill="none" xmlns="http://www.w3.org/2000/svg">
<path fill-rule="evenodd" clip-rule="evenodd" d="M16.3928 16.3096L20.7857 21.4643L20.0238 22.1191L15.619 16.9643C14.1031 18.1151 12.3968 18.6905 10.4999 18.6905C9.34909 18.6905 8.24791 18.4663 7.19634 18.0179C6.14478 17.5695 5.24002 16.9663 4.48205 16.2084C3.72408 15.4505 3.12091 14.5457 2.67253 13.4941C2.22416 12.4425 1.99995 11.3413 1.99992 10.1905C1.99989 9.03975 2.22409 7.93857 2.67253 6.88697C3.12097 5.83538 3.72414 4.93061 4.48205 4.17268C5.23995 3.41474 6.14472 2.81157 7.19634 2.36316C8.24797 1.91475 9.34916 1.69055 10.4999 1.69055C11.6507 1.69055 12.7518 1.91475 13.8035 2.36316C14.8551 2.81157 15.7599 3.41474 16.5178 4.17268C17.2757 4.93061 17.8788 5.83538 18.3273 6.88697C18.7757 7.93857 18.9999 9.03975 18.9999 10.1905C18.9999 11.3731 18.7697 12.4921 18.3094 13.5477C17.8491 14.6032 17.2102 15.5239 16.3928 16.3096L16.3928 16.3096ZM10.5 17.6905C11.8571 17.6905 13.1111 17.3552 14.2619 16.6845C15.4127 16.0138 16.3234 15.1031 16.9941 13.9523C17.6647 12.8016 18 11.5476 18 10.1904C18.0001 8.83329 17.6648 7.57932 16.9941 6.42854C16.3234 5.27775 15.4127 4.36705 14.2619 3.69643C13.1112 3.0258 11.8572 2.69049 10.5 2.69049C9.14281 2.69049 7.88884 3.0258 6.73809 3.69643C5.58734 4.36705 4.67664 5.27775 4.00598 6.42854C3.33533 7.57932 3.00002 8.83329 3.00005 10.1904C3.00008 11.5476 3.33539 12.8016 4.00598 13.9523C4.67658 15.1031 5.58728 16.0138 6.73809 16.6845C7.88891 17.3552 9.14288 17.6905 10.5 17.6905Z" fill="white"/>
</svg>
